<?xml version="1.0" encoding="utf-8"?>
<!-- Generator: Adobe Illustrator 27.4.0, SVG Export Plug-In . SVG Version: 6.00 Build 0)  -->
<svg version="1.1" id="Layer_1" xmlns="http://www.w3.org/2000/svg" xmlns:xlink="http://www.w3.org/1999/xlink" x="0px" y="0px"
	 viewBox="0 0 720 216" style="enable-background:new 0 0 720 216;" xml:space="preserve">
<style type="text/css">
	.st0{fill:#00AEEF;}
	.st1{fill:#0172BC;}
	.st2{fill:#050505;}
	.st3{fill:#F47722;}
	.st4{fill:#EE3124;}
	.st5{fill:#FDD20D;}
</style>
<g>
	<path class="st0" d="M64.11,142.48c2.74,5.12,6.46,9.44,10.72,13.36c5.8,5.33,12.49,9.22,19.72,12.16
		c4.22,1.72,8.7,3.08,13.23,3.33c1.8,0.1,3.38,1.13,5.31,0.7c1.8-0.4,3.8,0.17,5.64-0.12c4.72-0.75,9.48-1,14.11-2.69
		c3.4-1.25,6.67-2.73,9.89-4.28c3.34-1.61,6.44-3.74,9.17-6.33c1.99-1.89,4.47-3.39,6.05-5.56c2.15-2.94,4.37-5.85,6.19-9.08
		c2.42-4.3,4.18-8.8,5.58-13.48c0.56-1.87,0.81-3.85,1.08-5.79c0.09-0.69,0.29-1.28,0.67-2c0.53,3.51-0.23,6.82-0.7,10.09
		c-1.14,7.98-3.73,15.55-7.44,22.69c-1.89,3.63-3.77,7.37-6.29,10.55c-2.78,3.5-5.69,6.98-9.11,9.94c-2.15,1.86-4.05,4.11-6.45,5.55
		c-3.08,1.86-6.14,3.8-9.33,5.5c-5.02,2.68-10.4,4.39-15.78,5.95c-2.83,0.82-5.94,0.99-8.96,1.31c-3.93,0.41-7.86,0.38-11.76,0.25
		c-2.6-0.09-5.28-0.25-7.89-0.95c-3.63-0.97-7.38-1.43-10.96-2.64c-5.17-1.73-10.15-3.9-14.82-6.68
		c-5.76-3.43-11.02-7.56-15.54-12.53c-5.59-6.14-9.9-13.1-13.27-20.71c-2.36-5.33-3.6-10.95-4.82-16.56
		c-1.02-4.68-0.83-9.54-0.78-14.34c0.08-8.04,1.27-15.87,4.08-23.42c2.25-6.06,4.75-12,8.91-17.08c0.8-0.98,1.18-2.29,1.92-3.33
		c3.34-4.66,6.78-9.26,10.1-13.94c1.03-1.46,1.78-3.12,2.69-4.67c0.23-0.39,0.23-1.03,0.92-1.05c-1.16,5.01-2.42,10.01-3.45,15.05
		c-1.02,5.04-2.06,10.07-2.22,15.26c-0.06,1.93,0.2,3.91-0.26,5.84c-0.12,1.5-0.16,3,0.03,4.5c0.04,0.47,0.09,0.94,0.13,1.42
		l-0.1,0.13l0.15,0.09c-0.58,0.97,0.14,1.87,0.14,2.81c-0.01,4.03,0.8,7.98,1.63,11.88c1.64,7.74,4.27,15.18,7.88,22.23
		C61.28,138.12,62.18,140.63,64.11,142.48z"/>
	<path class="st1" d="M130,90.11c-3.68-3.33-6.87-7.14-10.26-10.75c-5.95-6.35-11.21-13.27-15.27-21.04
		c-4.19-8.01-5.78-16.53-5.05-25.45c0.37-4.46,1.71-8.77,3.31-12.98c0.15-0.38,0.16-0.71,0.67-0.68c0.57,0.04,0.42,0.48,0.5,0.82
		c0.71,3.06,1.77,5.98,3.01,8.89c2.01,4.75,4.8,8.95,7.91,12.95c2.88,3.7,6.26,6.95,9.91,9.94c5.52,4.53,11.53,8.36,17.31,12.51
		c10.68,7.66,18.51,17.65,23.59,29.83c1.52,3.66,2.36,7.47,2.82,11.29c0.37,3.01,1.25,6.02,0.8,9.15c-0.45,3.13-0.72,6.28-1.59,9.34
		c-0.86,3.01-1.81,5.97-3.12,8.82c-1.31,2.87-2.8,5.63-4.59,8.23c-1.75,2.55-3.77,4.87-5.87,7.16c-5.81,6.36-12.87,10.7-20.9,13.64
		c-2.61,0.95-5.25,1.34-8.01,1.61c-2.43,0.23-4.89,0.73-7.32,0.67c-2.28-0.05-4.77,0.57-6.86-1.02c-1.53,1.07-3.01,0.13-4.45-0.19
		c-2.49-0.57-5.01-1.1-7.19-2.56c0.76-0.01,1.53-0.13,2.26-0.01c4.48,0.7,8.96,0.75,13.42-0.05c10.36-1.86,18.57-7.17,24.63-15.73
		c3.63-5.12,5.47-10.89,6.33-17.15c0.55-4.02,0.07-7.94-0.27-11.83c-0.26-2.97-1.77-5.89-3.01-8.71
		c-2.58-5.87-6.71-10.7-10.92-15.44C131.3,90.84,130.86,90.17,130,90.11z"/>
	<path class="st2" d="M264.88,103.85c3.59-9.99,7.17-19.95,10.76-29.91c0.27-0.74,0.71-1.11,1.63-1.08c2.83,0.09,5.67,0.09,8.51,0
		c0.86-0.03,1.28,0.31,1.52,0.99c1.25,3.47,2.9,6.85,3.97,10.3c1.66,5.33,4.15,10.34,5.59,15.73c0.11,0.4,0.44,0.73,0.61,1.12
		c0.3,0.72,0.66,1.47,1.54,1.33c0.66-0.11,0.64-0.9,0.84-1.46c3.23-9.01,6.5-18.01,9.7-27.04c0.25-0.69,0.42-0.98,1.2-0.97
		c3.59,0.05,7.18,0.04,10.78,0.01c1.14-0.01,1.13,0.24,0.74,1.28c-2.38,6.29-4.6,12.64-6.96,18.94c-3.1,8.27-6.3,16.51-9.36,24.8
		c-0.3,0.82-0.66,0.91-1.3,0.91c-3.78,0-7.56,0.02-11.34-0.02c-0.59-0.01-1.14,0.04-1.49-0.93c-3.3-8.97-6.74-17.9-10.12-26.84
		c-0.08-0.2-0.08-0.43-0.48-0.74c-0.98,2.72-1.95,5.44-2.94,8.15c-2.38,6.48-4.82,12.95-7.12,19.46c-0.29,0.82-0.65,0.92-1.29,0.92
		c-3.59,0-7.18-0.04-10.78,0.02c-1.23,0.02-1.65-0.76-1.96-1.63c-5.02-14.25-10.45-28.34-15.76-42.48c-0.4-1.07-0.66-1.94,1.16-1.87
		c3.27,0.14,6.55,0.05,9.83,0.03c0.96-0.01,1.44,0.16,1.84,1.28c1.24,3.53,2.81,7.01,3.89,10.54c1.92,6.33,4.42,12.44,6.35,18.75
		C264.45,103.61,264.69,103.7,264.88,103.85z"/>
	<path class="st2" d="M459.9,118.81c-7.56,0-15.13-0.05-22.69,0.04c-1.55,0.02-1.87-0.47-1.87-1.92
		c0.05-14.12,0.06-28.23-0.01-42.35c-0.01-1.51,0.48-1.71,1.81-1.71c14.94,0.05,29.88,0.05,44.82,0c1.38-0.01,1.86,0.28,1.76,1.73
		c-0.14,2.07-0.13,4.16,0,6.23c0.09,1.41-0.3,1.79-1.75,1.78c-11.03-0.07-22.06,0.01-33.09-0.08c-1.81-0.02-2.48,0.4-2.25,2.26
		c0.16,1.3,0.12,2.65,0.01,3.96c-0.12,1.34,0.35,1.68,1.67,1.67c8.32-0.06,16.64-0.04,24.96-0.02c1.88,0,4.38-0.64,5.48,0.3
		c1.26,1.09,0.37,3.66,0.4,5.59c0.06,3.85,0.02,3.85-3.89,3.85c-8.95,0-17.9,0.03-26.85-0.03c-1.38-0.01-1.9,0.27-1.77,1.74
		c0.14,1.56,0.13,3.16,0,4.72c-0.11,1.37,0.41,1.65,1.7,1.65c11.41-0.05,22.82,0.02,34.23-0.07c1.81-0.01,2.27,0.53,2.17,2.24
		c-0.14,2.2-0.14,4.42,0,6.61c0.11,1.59-0.52,1.86-1.94,1.85C475.15,118.78,467.53,118.81,459.9,118.81z"/>
	<path class="st2" d="M583.55,88.59c0,0.49,0,1.09,0,1.68c0,8.94-0.04,17.89,0.04,26.83c0.01,1.44-0.37,1.8-1.77,1.73
		c-2.7-0.12-5.42-0.13-8.12,0c-1.54,0.08-1.98-0.29-1.97-1.91c0.08-12.72,0.04-25.45,0.04-38.17c0-1.57,0.05-3.15-0.02-4.72
		c-0.04-0.91,0.24-1.18,1.15-1.16c3.21,0.05,6.43,0.03,9.64,0.01c0.54,0,0.97,0.1,1.32,0.52c0.29,0.33,0.61,0.64,0.92,0.94
		c9.31,9.18,18.62,18.37,27.94,27.55c0.34,0.33,0.6,0.81,1.35,0.88c0-2.58,0-5.13,0-7.67c0-6.87,0.04-13.73-0.03-20.6
		c-0.01-1.34,0.34-1.69,1.65-1.64c2.96,0.1,5.92,0.08,8.88,0.01c1.1-0.03,1.33,0.33,1.33,1.37c-0.03,14.42-0.04,28.85,0,43.27
		c0,1.12-0.36,1.34-1.39,1.32c-3.09-0.06-6.17-0.04-9.26-0.01c-0.73,0.01-1.31-0.15-1.85-0.7c-4.75-4.78-9.69-9.38-14.24-14.35
		c-4.71-5.15-9.83-9.89-14.64-14.92C584.34,88.65,584.15,88.31,583.55,88.59z"/>
	<path class="st2" d="M533.42,102.98c0.02-9.45,0.07-18.91,0.02-28.36c-0.01-1.39,0.29-1.82,1.74-1.76
		c2.96,0.13,5.92,0.07,8.89,0.02c0.95-0.02,1.28,0.2,1.28,1.23c-0.04,14.5-0.04,28.99,0,43.49c0,1.04-0.34,1.35-1.28,1.22
		c-0.12-0.02-0.25,0-0.38,0c-3.34-0.03-7.04,0.85-9.91-0.33c-2.86-1.17-4.91-4.36-7.25-6.72c-7.29-7.38-14.56-14.79-21.83-22.19
		c-0.47-0.48-0.91-1-1.72-1.89c0,1.12,0,1.71,0,2.3c0,9.08-0.03,18.15,0.03,27.23c0.01,1.33-0.34,1.69-1.66,1.64
		c-2.96-0.1-5.92-0.07-8.89-0.01c-0.95,0.02-1.3-0.2-1.3-1.23c0.03-14.5,0.03-28.99,0-43.49c0-1.03,0.32-1.25,1.28-1.23
		c3.09,0.05,6.18,0.06,9.27-0.01c0.86-0.02,1.39,0.32,1.94,0.88c3.15,3.18,6.3,6.36,9.48,9.5c6.31,6.22,12.65,12.42,18.99,18.62
		c0.4,0.39,0.85,0.74,1.28,1.1c0,0-0.01,0.07-0.01,0.07L533.42,102.98z"/>
	<path class="st2" d="M674.46,93.86c3.09,0,6.18,0.02,9.26-0.01c0.98-0.01,1.52,0.01,1.6,1.33c0.4,6.42,0.04,12.83,0.18,19.25
		c0.01,0.46-0.16,0.64-0.63,0.92c-3.03,1.79-6.39,2.47-9.72,3.42c-6.26,1.77-12.58,1.45-18.9,1.42c-5.85-0.02-11.16-1.79-15.84-5.36
		c-5.08-3.87-8-8.91-8.89-15.28c-0.61-4.39-0.21-8.55,1.51-12.62c2.47-5.85,6.62-9.89,12.42-12.59c6.24-2.91,12.79-2.96,19.3-2.49
		c6.8,0.5,13.53,1.83,19.69,5.15c1.16,0.62,1.45,0.85,0.85,2.22c-1.1,2.51-2.95,4.58-3.89,7.16c-0.28,0.77-0.71,1.13-1.67,0.65
		c-2.21-1.12-4.44-2.22-6.75-3.08c-6.73-2.5-13.72-3.36-20.67-1.46c-3.69,1.01-7,3.41-8.25,7.32c-1.37,4.27-2.1,8.75,0.24,13
		c2.29,4.16,5.95,6.45,10.6,7.14c5.63,0.83,11.2,0.41,16.67-1.15c2.01-0.57,3.26-3.36,2.42-5.12c-0.25-0.53-0.76-0.35-1.17-0.35
		c-2.46-0.02-4.92-0.12-7.37,0.03c-1.57,0.1-1.88-0.49-1.8-1.89c0.11-2.01,0.1-4.03,0-6.05c-0.06-1.23,0.28-1.63,1.56-1.6
		C668.28,93.92,671.37,93.86,674.46,93.86z"/>
	<path class="st3" d="M50.25,92.77c0.46-1.92,0.2-3.9,0.26-5.84c0.16-5.19,1.19-10.22,2.22-15.26c1.03-5.04,2.29-10.03,3.45-15.05
		c0.22-0.87,0.43-1.74,0.68-2.74c1.42,1.08,0.96,2.64,1.2,3.86c2.21,11.31,6.6,21.57,13.87,30.61c5.7,7.09,12.81,12.33,20.72,16.63
		c3.84,2.09,7.87,3.72,12.05,4.97c3.05,0.91,6.15,1.64,9.5,2.53c-2.53,0.67-4.78,1.51-7.28,1.31c-1.33-0.11-2.52,0.7-3.91,0.81
		c-4.25,0.33-8.46,0.41-12.71-0.1c-5.64-0.68-10.94-2.36-15.94-4.96c-2.77-1.44-5.5-3.03-7.86-5.11c-1.04-0.91-1.45-0.61-1.91,0.42
		c-1.35,3.02-1.65,6.29-2.25,9.48c-0.69,3.71-0.54,7.48-0.56,11.24c-0.03,5.75,0.99,11.35,2.34,16.9c-1.93-1.85-2.84-4.36-4.01-6.64
		c-3.61-7.05-6.23-14.49-7.88-22.23c-0.83-3.9-1.64-7.85-1.63-11.88c0-0.94-0.72-1.85-0.14-2.81c0.06-0.09,0.04-0.16-0.04-0.22
		c-0.04-0.47-0.09-0.94-0.13-1.41C50.42,95.78,50.41,94.28,50.25,92.77z"/>
	<path class="st4" d="M130,90.11c0.86,0.06,1.3,0.74,1.79,1.28c4.21,4.74,8.34,9.57,10.92,15.44c1.24,2.82,2.75,5.74,3.01,8.71
		c0.34,3.89,0.83,7.81,0.27,11.83c-0.86,6.25-2.7,12.02-6.33,17.15c-6.06,8.56-14.28,13.87-24.63,15.73
		c-4.46,0.8-8.94,0.75-13.42,0.05c-0.74-0.12-1.51,0-2.26,0.01c-3.4-1.15-6.6-2.72-9.64-4.61c-4.98-3.09-9.04-7.18-12.57-11.82
		c-1.16-1.53-2.28-3.08-3.42-4.63c0.43-0.27,0.77-0.13,1.09,0.1c5.67,4.11,11.91,6.61,18.94,7.39c6.52,0.72,12.71-0.12,18.57-2.93
		c4.15-2,8.3-4.14,11.45-7.67c2.65-2.97,5.21-5.99,6.99-9.62c2.83-5.8,4.4-11.84,4.16-18.33c-0.17-4.7-1.3-9.14-3.05-13.49
		C131.26,93.16,130.07,91.86,130,90.11z"/>
	<path class="st2" d="M385.64,91.09c4.7-3.62,9.36-7.21,14.02-10.8c2.82-2.17,5.63-4.36,8.46-6.53c0.91-0.69,1.92-0.91,3.09-0.89
		c5.29,0.07,10.58,0.03,16.29,0.03c-2.34,1.77-4.38,3.35-6.46,4.87c-4.75,3.44-9.52,6.86-14.29,10.26
		c-0.66,0.47-0.74,0.78-0.16,1.45c4.11,4.77,8.2,9.57,12.24,14.41c4.07,4.87,8.07,9.8,12.26,14.91c-5.2,0-10.22,0.01-15.24-0.02
		c-0.48,0-1-0.12-1.32-0.59c-3.06-4.53-6.52-8.75-9.94-13.01c-1.74-2.18-3.12-4.62-5.26-6.53c-0.71-0.63-1.17-1.9-1.86-2.8
		c-0.41-0.54-0.74-0.77-1.5-0.19c-3.29,2.55-6.67,4.98-10.03,7.43c-0.9,0.66-0.62,1.57-0.62,2.4c0.01,3.97,0.01,7.93,0.12,11.9
		c0.03,1.2-0.34,1.49-1.49,1.45c-2.77-0.08-5.55-0.07-8.32,0c-1.03,0.02-1.41-0.21-1.4-1.33c0.04-14.43,0.04-28.86,0-43.28
		c0-1.09,0.31-1.37,1.37-1.34c2.83,0.07,5.67,0.08,8.51,0c1.11-0.03,1.34,0.34,1.33,1.38c-0.05,4.98-0.03,9.95-0.01,14.93
		C385.43,89.78,385.23,90.42,385.64,91.09z"/>
	<path class="st2" d="M370.58,118.72c-4.22,0.31-8.3-0.19-12.37,0.28c-0.75,0.09-0.85-0.63-1.07-1.1c-1.09-2.38-2.2-4.75-3.21-7.16
		c-0.36-0.85-0.76-1.19-1.74-1.19c-7.31,0.05-14.63,0.05-21.94,0c-1.05-0.01-1.56,0.36-1.96,1.28c-1.03,2.35-2.2,4.64-3.21,7
		c-0.37,0.86-0.89,1-1.7,0.99c-3.09-0.04-6.18-0.08-9.27,0.02c-1.44,0.04-1.44-0.55-0.97-1.53c1.66-3.46,3.38-6.89,5-10.36
		c2.27-4.84,4.34-9.78,6.75-14.55c1.54-3.03,2.93-6.14,4.48-9.17c1.47-2.88,2.8-5.83,4.09-8.79c0.48-1.1,1.01-1.62,2.31-1.58
		c3.78,0.1,7.56,0.08,11.35,0.01c1.01-0.02,1.47,0.29,1.91,1.21c3.43,7.2,6.93,14.36,10.4,21.54
		C363.14,103.28,366.83,110.95,370.58,118.72z M349.16,100.2c-2.64-5.76-5.16-11.27-7.72-16.86c-0.33,0.31-0.52,0.41-0.59,0.57
		c-2.39,5.14-4.75,10.3-7.16,15.44c-0.36,0.77-0.01,0.86,0.59,0.86C339.16,100.2,344.03,100.2,349.16,100.2z"/>
	<path class="st2" d="M189.03,118.81c2.97-6.36,5.8-12.48,8.67-18.58c3.12-6.65,6.26-13.29,9.41-19.93c1.04-2.2,2.13-4.38,3.18-6.57
		c0.29-0.61,0.67-0.87,1.41-0.86c4.03,0.05,8.06,0.05,12.09,0c0.91-0.01,1.28,0.35,1.65,1.13c5.63,11.69,11.29,23.36,16.95,35.04
		c1.35,2.79,2.71,5.57,4.08,8.36c0.41,0.84,0.69,1.46-0.75,1.43c-3.59-0.07-7.18-0.06-10.77,0c-0.93,0.02-1.36-0.44-1.67-1.15
		c-1.04-2.39-2.05-4.79-3.09-7.18c-0.28-0.65-0.7-0.96-1.54-0.96c-7.37,0.05-14.74,0.05-22.11,0c-0.9-0.01-1.31,0.31-1.64,1.06
		c-1.01,2.28-2.1,4.52-3.1,6.8c-0.45,1.03-1.09,1.46-2.28,1.43C196.08,118.75,192.63,118.81,189.03,118.81z M217.78,83.01
		c-2.7,5.79-5.31,11.38-7.98,17.1c5.39,0,10.45,0,15.73,0C222.96,94.42,220.45,88.88,217.78,83.01z"/>
	<path class="st2" d="M190.43,149.9c0-6.49,0.04-12.97-0.03-19.46c-0.01-1.4,0.24-1.94,1.83-1.93c7.87,0.09,15.75-0.13,23.62,0.1
		c6.57,0.18,13.18,0.46,19.33,3.28c5.59,2.55,8.93,6.77,9.86,12.93c0.67,4.42,0.67,8.72-0.74,13.05c-1.33,4.11-3.89,7.11-7.49,9.22
		c-4.62,2.72-9.71,3.91-15.06,4.12c-9.9,0.4-19.81,0-29.71,0.2c-1.36,0.03-1.65-0.39-1.64-1.68
		C190.46,163.12,190.43,156.51,190.43,149.9z M198.96,149.85c0,4.47,0.05,8.95-0.03,13.42c-0.02,1.39,0.22,1.95,1.8,1.91
		c4.66-0.12,9.33-0.04,13.99-0.05c3.97,0,7.94-0.11,11.8-1.14c4.54-1.2,7.93-3.77,9.29-8.46c0.9-3.12,0.86-6.43,0.35-9.48
		c-0.61-3.63-2.27-6.86-6.16-8.69c-4-1.89-8.18-2.13-12.34-2.37c-5.72-0.33-11.47-0.08-17.2-0.18c-1.34-0.02-1.54,0.46-1.53,1.63
		C198.99,140.91,198.96,145.38,198.96,149.85z"/>
	<path class="st2" d="M451.13,138.22c0,10.68-0.03,21.02,0.04,31.35c0.01,1.46-0.34,1.97-1.84,1.84c-1.63-0.14-3.28-0.07-4.91-0.02
		c-0.89,0.03-1.35-0.11-1.35-1.2c0.04-13.48,0.03-26.97,0.01-40.45c0-0.87,0.25-1.24,1.18-1.21c1.83,0.06,3.65,0.03,5.48,0.01
		c0.53-0.01,0.96,0.1,1.36,0.47c2.52,2.29,5.05,4.58,7.6,6.85c4.53,4.05,9.09,8.07,13.61,12.12c1.85,1.66,3.56,3.49,5.49,5.05
		c3.47,2.82,6.43,6.21,10.16,8.86c0.43-0.55,0.21-1.19,0.21-1.77c0.02-9.89,0.05-19.78-0.03-29.68c-0.01-1.61,0.43-2.07,1.98-1.92
		c1.44,0.14,2.91,0.14,4.34,0c1.47-0.14,1.76,0.4,1.75,1.79c-0.06,11.72-0.02,23.44-0.05,35.16c0,1.93,0.83,4.51-0.36,5.61
		c-1.04,0.95-3.59,0.19-5.46,0.32c-1.57,0.11-2.62-0.54-3.8-1.54c-3.05-2.6-5.77-5.56-9.17-7.81c-1.39-0.92-2.38-2.6-3.77-3.78
		c-3.19-2.7-6.12-5.71-9.3-8.42C459.94,146.12,455.96,141.93,451.13,138.22z"/>
	<path class="st2" d="M276.19,171.38c-7.12,0-14.24-0.04-21.36,0.03c-1.35,0.01-1.65-0.37-1.65-1.67c0.05-13.17,0.05-26.33,0-39.5
		c0-1.27,0.27-1.72,1.65-1.72c13.99,0.05,27.98,0.05,41.96,0c1.27,0,1.67,0.36,1.53,1.58c-0.18,1.48,0.65,3.47-0.35,4.33
		c-0.84,0.73-2.76,0.21-4.21,0.21c-10.21,0.01-20.42,0.03-30.62-0.03c-1.4-0.01-1.87,0.33-1.8,1.78c0.12,2.7,0.12,5.42,0,8.12
		c-0.06,1.4,0.31,1.78,1.75,1.77c10.59-0.07,21.17-0.01,31.76-0.07c1.34-0.01,1.82,0.21,1.79,1.7c-0.09,4.39-0.01,4.39-4.37,4.39
		c-9.64,0-19.28,0.05-28.92-0.05c-1.75-0.02-2.08,0.5-2.01,2.1c0.13,3.08,0.1,6.17,0.01,9.26c-0.04,1.34,0.39,1.67,1.69,1.67
		c11.4-0.05,22.81,0.01,34.21-0.07c1.7-0.01,2.13,0.47,2.09,2.12c-0.11,4.03-0.03,4.04-4.07,4.04
		C288.92,171.38,282.55,171.38,276.19,171.38z"/>
	<path class="st5" d="M119.28,93.73c-11.66-0.06-21.91-2.99-31.16-9.16c-7.15-4.77-12.53-11.16-15.81-19.06
		c-1.86-4.48-2.8-9.35-2.42-14.27c0.32-4.07,1.42-7.98,3.34-11.66c2.34-4.48,5.37-8.32,9.49-11.28c0.62,0.33,0.34,0.9,0.35,1.34
		c0.02,2.33,0.03,4.66-0.04,6.99c-0.18,6.24,0.82,12.24,2.97,18.12c2.61,7.13,6.22,13.65,11.09,19.45
		c5.97,7.1,13.16,12.85,20.61,18.28C118.1,92.78,118.47,93.09,119.28,93.73z"/>
	<path class="st2" d="M330.33,172.38c-7.37-0.03-14.6-0.86-21.47-3.78c-1.06-0.45-1.92-0.86-1.16-2.32c0.27-0.52,0.27-1.3,0.4-1.96
		c0.51-2.46,0.41-2.28,2.86-1.55c2.96,0.88,5.99,1.6,9.01,2.28c5.91,1.34,11.74,1.06,17.62,0.83c2.74-0.11,5.48-0.82,7.56-2.79
		c1.62-1.53,1.54-3.74,1.07-5.61c-0.49-1.97-2.39-2.9-4.32-3.25c-4.65-0.83-9.36-1.01-14.08-1.21c-5.2-0.22-10.44-0.59-15.05-3.42
		c-2.43-1.5-3.84-3.73-4.21-6.59c-0.03-0.25,0.01-0.51-0.03-0.75c-1.07-8.17,4.62-11.89,10.38-13.36
		c5.84-1.48,11.78-1.33,17.78-0.88c4.47,0.33,8.81,0.96,13.06,2.35c2.68,0.88,2.67,0.88,2,3.55c-0.3,1.2,0.09,2.98-0.99,3.45
		c-0.83,0.36-2.24-0.58-3.39-0.96c-6.9-2.29-13.94-3.04-21.19-2.31c-2.27,0.23-4.54,0.17-6.61,1.31c-1.89,1.04-3.13,2.51-3.08,4.75
		c0.04,2.25,1.42,3.52,3.36,4.41c2.01,0.92,4.2,1.11,6.28,1.15c3.73,0.08,7.43,0.57,11.18,0.4c2-0.09,4.07,0.44,6.06,0.93
		c2.43,0.6,4.93,1.15,7.01,2.69c3.98,2.95,5.34,7.69,3.76,12.77c-1.35,4.31-4.53,6.57-8.61,7.98
		C340.57,172.19,335.48,172.4,330.33,172.38z"/>
	<path class="st2" d="M503.01,128.56c2.69,0,4.88,0.28,6.96-0.07c3.01-0.51,4.93,0.95,6.42,3.07c1.34,1.9,3.07,3.4,4.55,5.15
		c3.33,3.96,6.99,7.65,10.54,11.47c5.59-5.47,10.61-11.38,15.7-17.22c1.37-1.57,2.78-2.72,5.13-2.47c2.35,0.25,4.75,0.05,7.46,0.05
		c-1.4,1.52-2.6,2.82-3.77,4.12c-2.75,3.09-5.75,5.95-8.53,9.01c-3.62,3.97-7.21,7.97-11.05,11.74c-0.59,0.58-0.55,1.2-0.55,1.88
		c0,4.85-0.04,9.71,0.03,14.56c0.02,1.24-0.32,1.62-1.56,1.55c-1.76-0.11-3.53-0.11-5.29,0c-1.38,0.08-1.87-0.3-1.83-1.77
		c0.1-3.97-0.16-7.95,0.1-11.91c0.16-2.5-0.78-4.24-2.37-5.91c-4.76-4.99-9.6-9.93-14.21-15.06
		C508.33,134.09,505.67,131.63,503.01,128.56z"/>
	<path class="st2" d="M388.15,128.56c8.26,0,16.51,0.03,24.77-0.03c1.4-0.01,1.84,0.39,1.84,1.81c-0.02,4.5,0.03,4.5-4.4,4.5
		c-5.48,0-10.97,0.06-16.45-0.04c-1.45-0.02-1.76,0.39-1.75,1.79c0.06,10.96,0,21.93,0.07,32.89c0.01,1.58-0.38,2.07-1.96,1.94
		c-1.75-0.15-3.53-0.03-5.29-0.04c-0.9,0-1.44-0.16-1.01-1.33c0.24-0.66,0.03-1.48,0.03-2.23c0-10.27-0.06-20.54,0.05-30.81
		c0.02-1.91-0.56-2.24-2.31-2.21c-6.24,0.11-12.48,0.01-18.72,0.07c-1.22,0.01-1.58-0.3-1.58-1.56c0-4.75-0.05-4.75,4.78-4.75
		C373.53,128.56,380.84,128.56,388.15,128.56z"/>
	<path class="st2" d="M552.87,95.76c0-7.12,0.03-14.23-0.03-21.35c-0.01-1.22,0.29-1.59,1.54-1.55c2.89,0.1,5.79,0.06,8.69,0.01
		c0.88-0.02,1.18,0.21,1.17,1.14c-0.03,14.55-0.04,29.09,0.01,43.64c0,1.15-0.51,1.17-1.35,1.16c-2.83-0.03-5.67-0.07-8.5,0.02
		c-1.22,0.04-1.58-0.28-1.57-1.54C552.9,110.12,552.87,102.94,552.87,95.76z"/>
	<path class="st2" d="M423.42,149.85c0-6.55,0.04-13.1-0.03-19.65c-0.01-1.33,0.38-1.75,1.7-1.67c1.69,0.11,3.41,0.12,5.1,0
		c1.42-0.11,1.82,0.34,1.8,1.77c-0.08,6.36-0.03,12.72-0.03,19.08c0,6.68-0.07,13.35,0.05,20.03c0.03,1.76-0.52,2.14-2.11,2
		c-1.56-0.13-3.15-0.12-4.72,0c-1.37,0.1-1.82-0.25-1.8-1.72C423.47,163.07,423.42,156.46,423.42,149.85z"/>
	<path class="st1" d="M628.53,149.87c0-2.08,0.07-4.16-0.03-6.23c-0.06-1.22,0.3-1.6,1.55-1.57c4.8,0.13,9.6,0.11,14.39,0.21
		c2.55,0.06,4.32,3.47,2.91,5.7c-0.73,1.16-0.65,1.92,0.3,2.88c1.73,1.76,1.27,4.73-0.93,5.88c-1.42,0.74-2.96,1.17-4.63,1.15
		c-4.03-0.06-8.05-0.04-12.08,0.03c-1.12,0.02-1.57-0.24-1.51-1.45C628.6,154.28,628.53,152.07,628.53,149.87z M638.16,154.36
		c0-0.03,0-0.06,0-0.09c1.25,0,2.51,0.03,3.76-0.01c0.89-0.03,1.69-0.36,1.66-1.39c-0.03-1.02-0.85-1.29-1.73-1.31
		c-2.19-0.05-4.39-0.07-6.58-0.11c-0.97-0.02-1.79-0.13-1.79,1.39c0,1.52,0.74,1.59,1.86,1.53
		C636.27,154.32,637.22,154.36,638.16,154.36z M637.69,148.15C637.69,148.15,637.69,148.15,637.69,148.15
		c1.13-0.01,2.27,0.03,3.4-0.02c0.84-0.03,1.76-0.15,1.78-1.25c0.03-1.13-0.96-1.24-1.75-1.27c-2.01-0.08-4.03,0-6.04-0.06
		c-1.05-0.03-1.59,0.14-1.59,1.41c0,1.29,0.7,1.22,1.56,1.2C635.93,148.13,636.81,148.15,637.69,148.15z"/>
	<path class="st1" d="M625.13,149.99c0.55,4.22-2.39,7.57-7.93,8.39c-2.55,0.38-5.06,0.54-7.58-0.02c-3.79-0.84-7.06-2.39-7.21-7.4
		c-0.08-2.61,0.03-5.08,2.2-7.01c0.92-0.82,1.95-1.28,3.07-1.61c4.12-1.22,8.28-1.28,12.37-0.01
		C623.69,143.46,625.13,145.79,625.13,149.99z M613.65,154.96c4.5-0.23,5.66-1.35,6.07-4.11c0.36-2.4-0.53-5.35-3.68-5.36
		c-0.35,0-0.7-0.25-1.06-0.29c-3.76-0.34-7.22,0.73-7.24,4.83C607.72,153.09,609.96,154.95,613.65,154.96z"/>
	<path class="st1" d="M571.51,158.18c-2.61-0.27-5.54,0.21-8.35-1.26c-2.59-1.36-3.48-3.51-3.84-6.08
		c-0.62-4.42,2.63-7.95,7.42-8.65c4.14-0.6,8.26-0.53,12.29,0.86c1.75,0.61,0.53,1.78,0.56,2.63c0.03,0.79-0.73,1.12-1.63,0.84
		c-3.04-0.93-6.1-1.27-9.3-0.7c-1.94,0.35-3.1,1.25-3.56,3.08c-0.53,2.08,0.16,3.25,1.8,4.54c2.39,1.88,5.01,0.97,7.56,0.97
		c0.94,0,1.14-0.71,1.08-1.58c-0.07-1.02-0.8-0.77-1.38-0.8c-0.5-0.03-1.02-0.08-1.51,0.01c-1.73,0.32-2.13-0.45-2.04-2.06
		c0.06-1.12,0.27-1.53,1.47-1.48c2.39,0.1,4.79,0.07,7.18,0.01c0.99-0.03,1.32,0.26,1.28,1.27c-0.07,1.95-0.09,3.91,0.01,5.86
		c0.05,0.97-0.43,1.33-1.2,1.58C576.9,158.02,574.34,158.01,571.51,158.18z"/>
	<path class="st1" d="M671.52,157.96c-1.85,0.36-3.22-0.16-3.85-2.03c-0.3-0.88-0.96-1-1.78-0.99c-2.45,0.03-4.91,0.04-7.36,0
		c-0.84-0.01-1.51,0.12-1.77,1c-0.54,1.83-1.8,2.35-3.57,2.05c-0.49-0.08-1.01-0.03-1.51-0.01c-1.28,0.06-1.75-0.11-0.87-1.49
		c2.85-4.46,5.6-8.99,8.32-13.54c0.4-0.66,0.85-0.76,1.48-0.87c3.04-0.52,5.08,0.44,6.51,3.38c1.66,3.4,3.84,6.54,5.8,9.8
		c0.45,0.76,1.5,1.5,1.03,2.36C673.5,158.47,672.33,157.8,671.52,157.96z M662.29,145.98c-0.95,2-2.99,3.81-2.43,5.14
		c0.47,1.12,3.27,0.27,5.03,0.35c0.04,0,0.09-0.06,0.29-0.21C664.28,149.61,663.36,147.94,662.29,145.98z"/>
	<path class="st1" d="M592.38,157.9c-2.33,0-4.65-0.05-6.98,0.02c-1.09,0.03-1.55-0.19-1.53-1.43c0.08-4.4,0.05-8.8,0.01-13.2
		c-0.01-0.85,0.17-1.18,1.12-1.22c4.03-0.19,4.03-0.23,4.03,3.81c0,2.33,0.05,4.65-0.02,6.98c-0.03,1.1,0.37,1.38,1.41,1.36
		c3.02-0.06,6.04,0.06,9.05-0.06c1.39-0.05,1.58,0.55,1.45,1.65c-0.11,0.93,0.54,2.23-1.38,2.12
		C597.16,157.8,594.76,157.9,592.38,157.9z"/>
	<path class="st1" d="M685.45,157.9c-2.39,0-4.78-0.05-7.17,0.02c-1.1,0.03-1.38-0.36-1.37-1.4c0.05-4.4,0.05-8.8,0-13.2
		c-0.01-1.04,0.37-1.22,1.31-1.24c3.71-0.08,3.71-0.11,3.71,3.54c0,0.31-0.01,0.63,0,0.94c0.12,2.49-0.27,5,0.22,7.48
		c2.5,0.34,5.01,0.07,7.51,0.15c1.01,0.03,2.02,0.1,3.02-0.02c1.63-0.19,1.3,0.91,1.28,1.79c-0.01,0.92,0.42,2.07-1.34,1.97
		C690.24,157.8,687.84,157.9,685.45,157.9z"/>
	<polygon class="st3" points="533.42,102.98 533.37,103.04 533.38,102.97 533.43,102.86 	"/>
	<path class="st1" d="M50.25,92.77c0.16,1.5,0.17,3,0.03,4.51C50.09,95.78,50.13,94.28,50.25,92.77z"/>
	<path class="st1" d="M50.41,98.7c0.08,0.06,0.1,0.13,0.04,0.22c0,0-0.15-0.09-0.15-0.09L50.41,98.7z"/>
</g>
</svg>
